<?xml version="1.0" encoding="UTF-8"?>
<svg xmlns="http://www.w3.org/2000/svg" width="940" height="500" viewBox="0 0 940 500" role="img">
<rect width="100%" height="100%" fill="white"/>
<style>text{font-family:Arial,Helvetica,sans-serif;fill:#1F2933}</style>
<text x="470.0" y="34.0" font-size="20" text-anchor="middle" font-weight="bold">Validation-set inference benchmark (batch size = 1)</text>
<text x="243.0" y="80.0" font-size="15" text-anchor="middle" font-weight="bold">Mean inference latency</text>
<line x1="78" y1="100" x2="78" y2="385" stroke="#607080"/>
<line x1="78" y1="385" x2="408" y2="385" stroke="#607080"/>
<line x1="78" y1="385.0" x2="408" y2="385.0" stroke="#D9E1E8"/>
<text x="70.0" y="389.0" font-size="11" text-anchor="end" font-weight="normal">0.00</text>
<line x1="78" y1="328.0" x2="408" y2="328.0" stroke="#D9E1E8"/>
<text x="70.0" y="332.0" font-size="11" text-anchor="end" font-weight="normal">39.92</text>
<line x1="78" y1="271.0" x2="408" y2="271.0" stroke="#D9E1E8"/>
<text x="70.0" y="275.0" font-size="11" text-anchor="end" font-weight="normal">79.83</text>
<line x1="78" y1="214.0" x2="408" y2="214.0" stroke="#D9E1E8"/>
<text x="70.0" y="218.0" font-size="11" text-anchor="end" font-weight="normal">119.75</text>
<line x1="78" y1="157.0" x2="408" y2="157.0" stroke="#D9E1E8"/>
<text x="70.0" y="161.0" font-size="11" text-anchor="end" font-weight="normal">159.67</text>
<line x1="78" y1="100.0" x2="408" y2="100.0" stroke="#D9E1E8"/>
<text x="70.0" y="104.0" font-size="11" text-anchor="end" font-weight="normal">199.58</text>
<rect x="120.9" y="151.4" width="79.2" height="233.6" fill="#2F6B9A"/>
<text x="160.5" y="145.4" font-size="11" text-anchor="middle" font-weight="normal">163.59</text>
<text x="160.5" y="411.0" font-size="11" text-anchor="middle" font-weight="normal">Faster R-CNN</text>
<rect x="285.9" y="277.6" width="79.2" height="107.4" fill="#E07A3F"/>
<text x="325.5" y="271.6" font-size="11" text-anchor="middle" font-weight="normal">75.24</text>
<text x="325.5" y="411.0" font-size="11" text-anchor="middle" font-weight="normal">RetinaNet</text>
<text x="34.0" y="242.5" font-size="11" text-anchor="middle" font-weight="normal">ms / image</text>
<text x="710.0" y="80.0" font-size="15" text-anchor="middle" font-weight="bold">Throughput from mean latency</text>
<line x1="545" y1="100" x2="545" y2="385" stroke="#607080"/>
<line x1="545" y1="385" x2="875" y2="385" stroke="#607080"/>
<line x1="545" y1="385.0" x2="875" y2="385.0" stroke="#D9E1E8"/>
<text x="537.0" y="389.0" font-size="11" text-anchor="end" font-weight="normal">0.00</text>
<line x1="545" y1="328.0" x2="875" y2="328.0" stroke="#D9E1E8"/>
<text x="537.0" y="332.0" font-size="11" text-anchor="end" font-weight="normal">3.24</text>
<line x1="545" y1="271.0" x2="875" y2="271.0" stroke="#D9E1E8"/>
<text x="537.0" y="275.0" font-size="11" text-anchor="end" font-weight="normal">6.49</text>
<line x1="545" y1="214.0" x2="875" y2="214.0" stroke="#D9E1E8"/>
<text x="537.0" y="218.0" font-size="11" text-anchor="end" font-weight="normal">9.73</text>
<line x1="545" y1="157.0" x2="875" y2="157.0" stroke="#D9E1E8"/>
<text x="537.0" y="161.0" font-size="11" text-anchor="end" font-weight="normal">12.97</text>
<line x1="545" y1="100.0" x2="875" y2="100.0" stroke="#D9E1E8"/>
<text x="537.0" y="104.0" font-size="11" text-anchor="end" font-weight="normal">16.21</text>
<rect x="587.9" y="277.6" width="79.2" height="107.4" fill="#2F6B9A"/>
<text x="627.5" y="271.6" font-size="11" text-anchor="middle" font-weight="normal">6.11</text>
<text x="627.5" y="411.0" font-size="11" text-anchor="middle" font-weight="normal">Faster R-CNN</text>
<rect x="752.9" y="151.4" width="79.2" height="233.6" fill="#E07A3F"/>
<text x="792.5" y="145.4" font-size="11" text-anchor="middle" font-weight="normal">13.29</text>
<text x="792.5" y="411.0" font-size="11" text-anchor="middle" font-weight="normal">RetinaNet</text>
<text x="501.0" y="242.5" font-size="11" text-anchor="middle" font-weight="normal">frames / s</text>
</svg>